# xmcd CD database file
#
# Track frame offsets:
#	150
#	11513
#	22388
#	33863
#	42863
#	51526
#	59326
#	68026
#	77139
#	89214
#	97539
#	109239
#	119439
#	130464
#	137439
#	151014
#	158702
#	166690
#	172240
#	184428
#	197253
#	206853
#	212441
#	222866
#	232766
#
# Disc length: 3253 seconds
#
# Revision: 2
# Processed by: cddbd v1.5.2PL0 Copyright (c) Steve Scherf et al.
# Submitted via: jetAudio 7
#
DISCID=5a0cb319
DTITLE=파이디온 어린이 CCM - 세상을 축복하는 아이들 (2
DTITLE=008)
DYEAR=2008
DGENRE=Gospel
TTITLE0=우리는 하나님의 리더
TTITLE1=오직 하나님만을 위하여
TTITLE2=하나님의 리더
TTITLE3=그분께 나아갑니다
TTITLE4=나는 나는
TTITLE5=기쁘고 좋은 날
TTITLE6=기쁨 가득
TTITLE7=야호 쨘쨘 뛰뛰빵빵
TTITLE8=고백
TTITLE9=셀 수 없어요
TTITLE10=일을 나눠 힘을 모아
TTITLE11=축복의 선물
TTITLE12=오늘 같이 좋은 날
TTITLE13=하나님 앞에서
TTITLE14=아름다운 너의 발
TTITLE15=하나님 일꾼
TTITLE16=하나님과 이야기하면
TTITLE17=내 작은 손길
TTITLE18=광대하신 여호와
TTITLE19=그가 싸우시리니
TTITLE20=주님께 드려요
TTITLE21=사랑은
TTITLE22=기쁨이 됩니다
TTITLE23=하나님께 나아오라
TTITLE24=우리는 하나님의 리더 (MR)
EXTD=YEAR: 2008
EXTT0=
EXTT1=
EXTT2=
EXTT3=
EXTT4=
EXTT5=
EXTT6=
EXTT7=
EXTT8=
EXTT9=
EXTT10=
EXTT11=
EXTT12=
EXTT13=
EXTT14=
EXTT15=
EXTT16=
EXTT17=
EXTT18=
EXTT19=
EXTT20=
EXTT21=
EXTT22=
EXTT23=
EXTT24=
PLAYORDER=
